<svg id="visual" viewBox="0 0 960 540" width="960" height="540" xmlns="http://www.w3.org/2000/svg" xmlns:xlink="http://www.w3.org/1999/xlink" version="1.1"><rect x="0" y="0" width="960" height="540" fill="#1f3240"></rect><path d="M0 381L12.3 374.5C24.7 368 49.3 355 74 356.8C98.7 358.7 123.3 375.3 148 380.8C172.7 386.3 197.3 380.7 221.8 377.5C246.3 374.3 270.7 373.7 295.2 370.3C319.7 367 344.3 361 369 364.8C393.7 368.7 418.3 382.3 443 388.7C467.7 395 492.3 394 517 388.3C541.7 382.7 566.3 372.3 591 373C615.7 373.7 640.3 385.3 664.8 387.8C689.3 390.3 713.7 383.7 738.2 377.5C762.7 371.3 787.3 365.7 812 368.3C836.7 371 861.3 382 886 381C910.7 380 935.3 367 947.7 360.5L960 354L960 541L947.7 541C935.3 541 910.7 541 886 541C861.3 541 836.7 541 812 541C787.3 541 762.7 541 738.2 541C713.7 541 689.3 541 664.8 541C640.3 541 615.7 541 591 541C566.3 541 541.7 541 517 541C492.3 541 467.7 541 443 541C418.3 541 393.7 541 369 541C344.3 541 319.7 541 295.2 541C270.7 541 246.3 541 221.8 541C197.3 541 172.7 541 148 541C123.3 541 98.7 541 74 541C49.3 541 24.7 541 12.3 541L0 541Z" fill="#234f5f"></path><path d="M0 374L12.3 376.8C24.7 379.7 49.3 385.3 74 391.5C98.7 397.7 123.3 404.3 148 401.2C172.7 398 197.3 385 221.8 382.7C246.3 380.3 270.7 388.7 295.2 396.7C319.7 404.7 344.3 412.3 369 414.7C393.7 417 418.3 414 443 411.8C467.7 409.7 492.3 408.3 517 404.8C541.7 401.3 566.3 395.7 591 391C615.7 386.3 640.3 382.7 664.8 385C689.3 387.3 713.7 395.7 738.2 399C762.7 402.3 787.3 400.7 812 398.8C836.7 397 861.3 395 886 391.7C910.7 388.3 935.3 383.7 947.7 381.3L960 379L960 541L947.7 541C935.3 541 910.7 541 886 541C861.3 541 836.7 541 812 541C787.3 541 762.7 541 738.2 541C713.7 541 689.3 541 664.8 541C640.3 541 615.7 541 591 541C566.3 541 541.7 541 517 541C492.3 541 467.7 541 443 541C418.3 541 393.7 541 369 541C344.3 541 319.7 541 295.2 541C270.7 541 246.3 541 221.8 541C197.3 541 172.7 541 148 541C123.3 541 98.7 541 74 541C49.3 541 24.7 541 12.3 541L0 541Z" fill="#1c4759"></path><path d="M0 448L12.3 443.8C24.7 439.7 49.3 431.3 74 425.2C98.7 419 123.3 415 148 414.8C172.7 414.7 197.3 418.3 221.8 422.8C246.3 427.3 270.7 432.7 295.2 429.3C319.7 426 344.3 414 369 409C393.7 404 418.3 406 443 412.5C467.7 419 492.3 430 517 433C541.7 436 566.3 431 591 432.3C615.7 433.7 640.3 441.3 664.8 443.7C689.3 446 713.7 443 738.2 441.8C762.7 440.7 787.3 441.3 812 440C836.7 438.7 861.3 435.3 886 429.5C910.7 423.7 935.3 415.3 947.7 411.2L960 407L960 541L947.7 541C935.3 541 910.7 541 886 541C861.3 541 836.7 541 812 541C787.3 541 762.7 541 738.2 541C713.7 541 689.3 541 664.8 541C640.3 541 615.7 541 591 541C566.3 541 541.7 541 517 541C492.3 541 467.7 541 443 541C418.3 541 393.7 541 369 541C344.3 541 319.7 541 295.2 541C270.7 541 246.3 541 221.8 541C197.3 541 172.7 541 148 541C123.3 541 98.7 541 74 541C49.3 541 24.7 541 12.3 541L0 541Z" fill="#163e52"></path><path d="M0 433L12.3 434.2C24.7 435.3 49.3 437.7 74 441.7C98.7 445.7 123.3 451.3 148 449.8C172.7 448.3 197.3 439.7 221.8 442C246.3 444.3 270.7 457.7 295.2 463.2C319.7 468.7 344.3 466.3 369 466.2C393.7 466 418.3 468 443 466.2C467.7 464.3 492.3 458.7 517 453.3C541.7 448 566.3 443 591 445.7C615.7 448.3 640.3 458.7 664.8 464.7C689.3 470.7 713.7 472.3 738.2 467.7C762.7 463 787.3 452 812 447C836.7 442 861.3 443 886 443.7C910.7 444.3 935.3 444.7 947.7 444.8L960 445L960 541L947.7 541C935.3 541 910.7 541 886 541C861.3 541 836.7 541 812 541C787.3 541 762.7 541 738.2 541C713.7 541 689.3 541 664.8 541C640.3 541 615.7 541 591 541C566.3 541 541.7 541 517 541C492.3 541 467.7 541 443 541C418.3 541 393.7 541 369 541C344.3 541 319.7 541 295.2 541C270.7 541 246.3 541 221.8 541C197.3 541 172.7 541 148 541C123.3 541 98.7 541 74 541C49.3 541 24.7 541 12.3 541L0 541Z" fill="#10364c"></path><path d="M0 479L12.3 480.3C24.7 481.7 49.3 484.3 74 486.2C98.7 488 123.3 489 148 487.5C172.7 486 197.3 482 221.8 477.2C246.3 472.3 270.7 466.7 295.2 467C319.7 467.3 344.3 473.7 369 473.7C393.7 473.7 418.3 467.3 443 466.2C467.7 465 492.3 469 517 475C541.7 481 566.3 489 591 491C615.7 493 640.3 489 664.8 487.7C689.3 486.3 713.7 487.7 738.2 488.8C762.7 490 787.3 491 812 489.2C836.7 487.3 861.3 482.7 886 479.5C910.7 476.3 935.3 474.7 947.7 473.8L960 473L960 541L947.7 541C935.3 541 910.7 541 886 541C861.3 541 836.7 541 812 541C787.3 541 762.7 541 738.2 541C713.7 541 689.3 541 664.8 541C640.3 541 615.7 541 591 541C566.3 541 541.7 541 517 541C492.3 541 467.7 541 443 541C418.3 541 393.7 541 369 541C344.3 541 319.7 541 295.2 541C270.7 541 246.3 541 221.8 541C197.3 541 172.7 541 148 541C123.3 541 98.7 541 74 541C49.3 541 24.7 541 12.3 541L0 541Z" fill="#0c2d44"></path><path d="M0 505L12.3 508C24.7 511 49.3 517 74 519.8C98.7 522.7 123.3 522.3 148 518.5C172.7 514.7 197.3 507.3 221.8 505.2C246.3 503 270.7 506 295.2 508.7C319.7 511.3 344.3 513.7 369 512.8C393.7 512 418.3 508 443 506.7C467.7 505.3 492.3 506.7 517 505C541.7 503.3 566.3 498.7 591 499.5C615.7 500.3 640.3 506.7 664.8 507.3C689.3 508 713.7 503 738.2 500.3C762.7 497.7 787.3 497.3 812 501C836.7 504.7 861.3 512.3 886 513C910.7 513.7 935.3 507.3 947.7 504.2L960 501L960 541L947.7 541C935.3 541 910.7 541 886 541C861.3 541 836.7 541 812 541C787.3 541 762.7 541 738.2 541C713.7 541 689.3 541 664.8 541C640.3 541 615.7 541 591 541C566.3 541 541.7 541 517 541C492.3 541 467.7 541 443 541C418.3 541 393.7 541 369 541C344.3 541 319.7 541 295.2 541C270.7 541 246.3 541 221.8 541C197.3 541 172.7 541 148 541C123.3 541 98.7 541 74 541C49.3 541 24.7 541 12.3 541L0 541Z" fill="#09253d"></path></svg>